# xmcd
#
# Track frame offsets:
#	150
#	21271
#	39511
#	56195
#	75797
#	87226
#	100016
#	113813
#	126650
#	139050
#	150254
#	164950
#	185688
#	198391
#	214855
#	226795
#	243363
#	256834
#	272857
#	286149
#	305491
#	316619
#	331255
#
# Disc length: 4560 seconds
#
# Revision: 0
# Processed by: cddbd v1.5.2PL0 Copyright (c) Steve Scherf et al.
# Submitted via: audiograbber 1.83.01
#
DISCID=3d11ce17
DTITLE=Greatest hits of the 60's - Greatest hits of the 60's
DYEAR=1900
DGENRE=Country
TTITLE0=Procol Harum - A Salty Dog
TTITLE1=Procol Harum - A whiter shade of pale - 1967
TTITLE2=Procul Harum - Homburg
TTITLE3=Scaffold - Lily The Pink
TTITLE4=Scaffold - Thank U Very Much
TTITLE5=Shangri-Las - Leader Of The Pack
TTITLE6=Shocking Blue - Venus
TTITLE7=Small Faces - Itchycoo Park
TTITLE8=The Animals - Bring It On Home To Me
TTITLE9=The Animals - Don't Let Me Be Misunderstood
TTITLE10=The Animals - We've Gotta Get Out Of This Place
TTITLE11=The Band - The Weight - 1968
TTITLE12=The Beach Boys - God Only Knows
TTITLE13=The Beach Boys - Good Vibrations
TTITLE14=The Everly Brothers - Let It Be Me
TTITLE15=The Flowerpot Men - Let's Go To San Francisco - 1967
TTITLE16=The Herd - I Don't Want Our Loving To Die
TTITLE17=The Herd - Paradise Lost - 1967
TTITLE18=The Hollies - Carrie Anne
TTITLE19=The Hollies - He Ain't Heavy, He's My Brother
TTITLE20=The Hollies - I'm Alive
TTITLE21=The Hollies - On A Carousel
TTITLE22=The Move - Fire Brigade - 1968
EXTD=
EXTT0=
EXTT1=
EXTT2=
EXTT3=
EXTT4=
EXTT5=
EXTT6=
EXTT7=
EXTT8=
EXTT9=
EXTT10=
EXTT11=
EXTT12=
EXTT13=
EXTT14=
EXTT15=
EXTT16=
EXTT17=
EXTT18=
EXTT19=
EXTT20=
EXTT21=
EXTT22=
PLAYORDER=
